<svg xmlns="http://www.w3.org/2000/svg" width="70" height="71" viewBox="0 0 70 71" fill="none">
  <path d="M25.3578 11.8021C25.3548 4.37795 33.3898 -0.265297 39.8208 3.44421C42.8077 5.16716 44.6475 8.35379 44.6462 11.8021C44.6491 19.2262 36.6141 23.8694 30.1832 20.1599C27.1962 18.437 25.3564 15.2503 25.3578 11.8021ZM10.3155 19.3701C12.0568 16.9724 15.4055 16.45 17.8031 18.1913L22.652 21.7142C26.2418 24.3261 30.5683 25.7326 35.0019 25.7326C39.4356 25.7326 43.7621 24.3261 47.3519 21.7142L52.2008 18.1779C54.5984 16.4366 57.9471 16.9724 59.6884 19.3567C61.4298 21.7409 60.894 25.103 58.5097 26.8443L53.6608 30.3805C51.8391 31.7066 49.8969 32.8184 47.8609 33.7292V38.5915H22.143V33.7292C20.107 32.8318 18.1648 31.7066 16.3431 30.3805L11.4942 26.8443C9.09656 25.103 8.57416 21.7543 10.3155 19.3567V19.3701ZM22.3439 44.1235L30.4611 51.2227L26.9785 56.2056L30.2334 59.4605C32.323 61.5501 32.323 64.9389 30.2334 67.0419C28.1439 69.1449 24.755 69.1315 22.652 67.0419L16.2225 60.6124C14.3741 58.764 14.1196 55.8707 15.6064 53.7409L22.3305 44.1235H22.3439ZM39.5562 51.2227L47.6734 44.1235L54.3975 53.7409C55.8843 55.8707 55.6298 58.764 53.7947 60.599L47.3653 67.0285C45.2757 69.1181 41.8868 69.1181 39.7839 67.0285C37.6809 64.9389 37.6943 61.5501 39.7839 59.4471L43.0388 56.1922L39.5562 51.2093V51.2227Z" fill="white"/>
</svg>